<svg xmlns="http://www.w3.org/2000/svg" version="1.1" xmlns:xlink="http://www.w3.org/1999/xlink" xmlns:svgjs="http://svgjs.com/svgjs" width="1000" height="1000"><rect width="1000" height="1000" rx="200" ry="200" fill="#555555"></rect><g transform="matrix(3.125,0,0,3.125,100,100)"><svg xmlns="http://www.w3.org/2000/svg" version="1.1" xmlns:xlink="http://www.w3.org/1999/xlink" xmlns:svgjs="http://svgjs.com/svgjs" width="256" height="256"><svg xmlns="http://www.w3.org/2000/svg" width="256" height="256" viewBox="0 0 100 100"><rect width="100" height="100" rx="20" fill="#557458"></rect><path fill="#fff" d="M45.84 51.12L45.84 51.12Q45.84 51.34 45.77 51.76Q45.70 52.18 45.55 52.58Q45.40 52.98 45.18 53.30Q44.96 53.61 44.67 53.61L44.67 53.61Q44.53 53.61 44.42 53.57Q44.31 53.53 44.16 53.53L44.16 53.53Q43.90 53.53 43.70 53.77Q43.50 54.01 43.26 54.32Q43.02 54.63 42.71 54.87Q42.40 55.11 41.93 55.11L41.93 55.11Q41.74 55.11 41.38 55.04L41.38 55.04Q41.52 55.77 41.60 56.50Q41.67 57.23 41.67 57.97L41.67 57.97Q41.67 59.14 41.52 60.25Q41.38 61.37 41.19 62.51Q41.01 63.64 40.86 64.78Q40.72 65.91 40.72 67.05L40.72 67.05Q40.72 68.40 40.92 69.72Q41.12 71.04 41.12 72.39L41.12 72.39Q41.12 72.98 41.01 73.62Q40.90 74.26 40.63 74.81Q40.35 75.36 39.87 75.73Q39.40 76.09 38.70 76.09L38.70 76.09Q37.68 76.09 37.11 75.45Q36.54 74.81 36.16 74.06Q35.77 73.31 35.46 72.67Q35.15 72.03 34.64 72.03L34.64 72.03Q34.38 72.03 34.00 72.30Q33.61 72.58 33.14 72.94Q32.66 73.31 32.09 73.64Q31.52 73.97 30.94 74.08L30.94 74.08Q30.24 74.22 29.99 74.48Q29.73 74.74 29.47 74.98Q29.22 75.21 28.72 75.40Q28.23 75.58 27.02 75.58L27.02 75.58Q26.21 75.58 25.43 75.51Q24.64 75.43 23.83 75.43L23.83 75.43Q23.25 75.43 22.68 75.51Q22.11 75.58 21.53 75.58L21.53 75.58Q20.61 75.58 20.03 75.42Q19.44 75.25 18.98 74.99Q18.52 74.74 18.03 74.46Q17.54 74.19 16.77 73.97L16.77 73.97Q16.18 73.79 15.81 73.66Q15.45 73.53 15.16 73.36Q14.86 73.20 14.57 72.96Q14.28 72.72 13.80 72.32L13.80 72.32Q13.51 72.10 13.14 71.88Q12.77 71.66 12.45 71.42Q12.12 71.19 11.88 70.89Q11.64 70.60 11.60 70.16L11.60 70.16Q11.57 69.83 11.49 69.68Q11.42 69.54 11.29 69.46Q11.16 69.39 11.00 69.34Q10.83 69.28 10.58 69.13L10.58 69.13Q10.14 68.48 9.92 67.78Q9.70 67.08 9.48 66.41Q9.26 65.73 8.93 65.09Q8.60 64.45 7.94 63.90L7.94 63.90Q8.05 63.53 8.05 63.09L8.05 63.09Q8.05 62.32 7.76 61.61Q7.46 60.89 7.12 60.18Q6.77 59.47 6.48 58.72Q6.18 57.97 6.18 57.12L6.18 57.12Q6.18 56.61 6.27 56.10Q6.37 55.58 6.37 55.07L6.37 55.07Q6.37 54.38 6.20 53.72Q6.04 53.06 5.85 52.42Q5.67 51.78 5.51 51.12Q5.34 50.46 5.34 49.76L5.34 49.76Q5.34 49.54 5.36 49.30Q5.38 49.07 5.41 48.85L5.41 48.85Q5.63 47.53 5.74 46.17Q5.85 44.82 5.96 43.48Q6.07 42.14 6.22 40.81Q6.37 39.47 6.66 38.15L6.66 38.15Q6.95 36.87 7.19 35.63Q7.43 34.38 7.43 33.10L7.43 33.10Q7.72 32.70 8.22 32.26Q8.71 31.82 9.20 31.36Q9.70 30.90 10.08 30.41Q10.47 29.91 10.58 29.44L10.58 29.44Q10.69 28.96 11.18 28.27Q11.68 27.57 12.32 26.87Q12.96 26.18 13.64 25.67Q14.31 25.15 14.79 25.08L14.79 25.08Q15.01 25.04 15.28 25.04Q15.56 25.04 15.80 24.97Q16.03 24.90 16.22 24.75Q16.40 24.60 16.40 24.27L16.40 24.27Q16.40 24.02 16.29 23.72L16.29 23.72Q18.27 23.54 20.21 23.10Q22.15 22.66 24.13 22.66L24.13 22.66Q24.57 22.66 25.52 22.70Q26.47 22.74 27.44 22.94Q28.41 23.14 29.14 23.52Q29.88 23.91 29.88 24.57L29.88 24.57L29.88 24.75Q29.99 24.71 30.11 24.71Q30.24 24.71 30.35 24.71L30.35 24.71Q30.94 24.71 31.49 24.93Q32.04 25.15 32.62 25.15L32.62 25.15Q33.21 25.15 33.85 25.10Q34.49 25.04 35.13 24.88Q35.77 24.71 36.30 24.42Q36.83 24.13 37.20 23.69L37.20 23.69Q38.01 23.69 38.52 24.48Q39.03 25.26 39.32 26.32Q39.62 27.39 39.75 28.47Q39.87 29.55 39.87 30.13L39.87 30.13Q39.87 31.01 39.75 31.89Q39.62 32.77 39.29 33.61L39.29 33.61Q39.36 34.09 39.60 34.45Q39.84 34.82 40.11 35.17Q40.39 35.52 40.61 35.90Q40.83 36.29 40.83 36.76L40.83 36.76Q40.57 37.42 40.52 38.65Q40.46 39.87 40.30 41.10Q40.13 42.33 39.67 43.23Q39.22 44.12 38.15 44.12L38.15 44.12Q37.42 44.12 36.91 43.63Q36.40 43.13 36.14 42.51L36.14 42.51L36.21 42.55Q36.69 42.55 36.69 42.11L36.69 42.11Q36.69 42.00 36.45 41.82Q36.21 41.63 35.92 41.43Q35.63 41.23 35.33 41.03Q35.04 40.83 34.89 40.64L34.89 40.64Q34.60 40.28 34.34 39.69Q34.09 39.11 33.91 38.43Q33.72 37.75 33.61 37.07Q33.50 36.40 33.50 35.81L33.50 35.81Q33.50 35.63 33.50 35.48Q33.50 35.33 33.54 35.19L33.54 35.19L33.50 35.22Q33.39 35.19 33.04 34.75Q32.70 34.31 32.28 33.78Q31.85 33.25 31.47 32.75Q31.09 32.26 30.94 32.07L30.94 32.07Q30.21 31.34 29.36 30.76Q28.52 30.17 27.79 29.44L27.79 29.44Q27.50 29.62 27.19 29.75Q26.87 29.88 26.54 29.88L26.54 29.88Q26.25 29.88 26.07 29.75Q25.89 29.62 25.70 29.46Q25.52 29.29 25.30 29.14Q25.08 29.00 24.71 29.00L24.71 29.00Q23.91 29.00 23.16 29.18Q22.41 29.36 21.60 29.36L21.60 29.36Q20.76 29.36 19.93 29.03Q19.11 28.70 18.23 28.70L18.23 28.70Q18.16 28.70 18.03 28.74Q17.90 28.78 17.83 28.81L17.83 28.81Q17.86 29.14 18.01 29.44Q18.16 29.73 18.16 30.06L18.16 30.06Q18.16 30.57 17.74 31.05Q17.32 31.52 16.75 31.96Q16.18 32.40 15.61 32.82Q15.05 33.25 14.75 33.61L14.75 33.61Q14.35 34.12 14.11 34.71Q13.87 35.30 13.65 35.86Q13.43 36.43 13.09 36.94Q12.74 37.46 12.12 37.79L12.12 37.79Q12.41 38.56 12.41 39.25L12.41 39.25Q12.41 39.76 12.34 40.22Q12.26 40.68 12.26 41.19L12.26 41.19Q12.26 42.36 12.45 43.52Q12.63 44.67 12.63 45.84L12.63 45.84Q12.63 46.80 12.46 47.73Q12.30 48.66 12.08 49.60Q11.86 50.53 11.69 51.46Q11.53 52.40 11.53 53.35L11.53 53.35Q11.53 54.19 11.73 54.96Q11.93 55.73 12.19 56.46Q12.45 57.20 12.65 57.86Q12.85 58.51 12.85 59.10L12.85 59.10Q12.85 59.50 12.77 59.91Q12.70 60.31 12.70 60.71L12.70 60.71Q12.70 62.29 13.40 63.37Q14.09 64.45 14.99 65.40Q15.89 66.35 16.73 67.32Q17.57 68.29 17.86 69.65L17.86 69.65Q18.41 69.54 18.93 69.54L18.93 69.54Q19.59 69.54 20.25 69.68Q20.90 69.83 21.53 70.03Q22.15 70.23 22.81 70.38Q23.47 70.53 24.13 70.53L24.13 70.53Q25.52 70.53 26.97 69.96Q28.41 69.39 29.64 68.44Q30.87 67.49 31.78 66.24Q32.70 65.00 33.03 63.64L33.03 63.64Q33.32 62.32 33.87 61.15L33.87 61.15Q34.09 60.71 34.31 60.60Q34.53 60.49 34.71 60.46Q34.89 60.42 35.00 60.38Q35.11 60.35 35.11 60.13L35.11 60.13Q35.11 59.91 34.88 59.72Q34.64 59.54 34.64 59.25L34.64 59.25Q34.64 59.14 34.78 58.97Q34.93 58.81 35.13 58.59Q35.33 58.37 35.48 58.06Q35.63 57.75 35.63 57.38L35.63 57.38Q35.63 56.61 35.19 56.13Q34.75 55.66 34.09 55.31Q33.43 54.96 32.68 54.69Q31.93 54.41 31.27 54.01Q30.61 53.61 30.17 53.00Q29.73 52.40 29.73 51.41L29.73 51.41Q29.73 50.60 30.15 50.07Q30.57 49.54 31.21 49.21Q31.85 48.88 32.59 48.72Q33.32 48.55 33.98 48.44L33.98 48.44Q34.42 48.37 34.93 48.17Q35.44 47.97 35.96 47.77Q36.47 47.56 36.93 47.40Q37.38 47.24 37.75 47.24L37.75 47.24Q38.26 47.24 38.78 47.44Q39.29 47.64 39.80 47.71L39.80 47.71Q40.50 47.82 41.54 48.00Q42.58 48.19 43.54 48.55Q44.49 48.92 45.17 49.52Q45.84 50.13 45.84 51.12ZM94.66 73.86L94.66 73.86Q94.66 74.41 94.13 74.77Q93.60 75.14 92.77 75.36Q91.95 75.58 90.96 75.71Q89.97 75.84 89.00 75.89Q88.03 75.95 87.24 75.95Q86.46 75.95 86.05 75.95L86.05 75.95Q85.10 75.95 84.33 76.17Q83.56 76.39 82.89 76.64Q82.21 76.90 81.62 77.12Q81.04 77.34 80.45 77.34L80.45 77.34Q79.94 77.34 79.59 77.01Q79.24 76.68 78.73 76.68L78.73 76.68Q78.14 76.68 77.63 76.42Q77.12 76.17 76.72 75.74Q76.31 75.32 76.07 74.77Q75.84 74.22 75.84 73.68L75.84 73.68Q75.84 72.98 76.18 72.50Q76.53 72.03 77.08 71.72Q77.63 71.41 78.27 71.28Q78.91 71.15 79.50 71.15L79.50 71.15Q80.01 71.15 80.49 71.28Q80.96 71.41 81.37 71.73L81.37 71.73Q81.40 71.19 81.66 70.80Q81.92 70.42 82.21 70.07Q82.50 69.72 82.74 69.32Q82.98 68.91 82.98 68.33L82.98 68.33Q82.98 67.38 82.87 66.41Q82.76 65.44 82.76 64.48L82.76 64.48Q82.76 63.86 82.89 63.24Q83.01 62.62 83.01 61.96L83.01 61.96Q83.01 61.22 82.92 60.46Q82.83 59.69 82.83 58.92L82.83 58.92Q82.83 58.18 83.05 57.71Q83.27 57.23 83.27 56.83L83.27 56.83Q83.27 56.06 83.01 55.27Q82.76 54.49 82.32 53.85Q81.88 53.20 81.29 52.75Q80.71 52.29 80.08 52.18L80.08 52.18Q78.25 51.85 76.42 51.85L76.42 51.85Q75.91 51.85 75.47 52.01Q75.03 52.18 74.77 52.18L74.77 52.18Q74.55 52.18 74.26 52.01Q73.97 51.85 73.86 51.85L73.86 51.85Q73.38 51.85 72.89 52.01Q72.39 52.18 71.88 52.36Q71.37 52.55 70.86 52.71Q70.34 52.87 69.87 52.87L69.87 52.87Q69.06 52.87 68.20 52.89Q67.34 52.91 66.52 53.04Q65.69 53.17 64.94 53.52Q64.19 53.86 63.60 54.52L63.60 54.52L63.60 54.78Q63.60 55.51 63.64 56.19Q63.68 56.87 63.68 57.60L63.68 57.60Q63.68 58.44 63.57 59.17Q63.46 59.91 63.06 60.68L63.06 60.68Q62.95 60.97 62.95 61.19L62.95 61.19Q62.95 61.77 63.17 62.30Q63.39 62.84 63.39 63.42L63.39 63.42Q63.39 63.68 63.20 63.97Q63.02 64.26 63.02 64.59L63.02 64.59Q63.02 65.11 63.18 65.58Q63.35 66.06 63.57 66.55Q63.79 67.05 63.97 67.52Q64.15 68.00 64.23 68.51L64.23 68.51Q64.34 69.57 64.98 70.10Q65.62 70.64 66.46 70.95Q67.30 71.26 68.24 71.51Q69.17 71.77 69.87 72.25L69.87 72.25Q69.79 72.61 69.79 72.80L69.79 72.80Q69.79 73.42 70.01 73.97Q70.23 74.52 70.23 75.14L70.23 75.14Q70.23 75.76 69.78 76.13Q69.32 76.50 68.66 76.66Q68.00 76.82 67.32 76.86Q66.64 76.90 66.20 76.90L66.20 76.90Q66.13 76.90 65.91 76.84Q65.69 76.79 65.45 76.70Q65.22 76.61 65.00 76.53Q64.78 76.46 64.67 76.42L64.67 76.42Q62.62 76.82 60.49 76.93Q58.37 77.04 56.28 77.04L56.28 77.04Q55.73 77.04 54.85 76.95Q53.97 76.86 53.11 76.59Q52.25 76.31 51.65 75.82Q51.04 75.32 51.04 74.52L51.04 74.52Q51.04 74.15 51.15 73.66Q51.26 73.16 51.48 72.69Q51.70 72.21 52.00 71.81Q52.29 71.41 52.66 71.22L52.66 71.22Q53.46 70.86 54.47 70.65Q55.47 70.45 56.37 70.00Q57.27 69.54 57.89 68.59Q58.51 67.63 58.51 65.73L58.51 65.73Q58.51 64.78 58.44 63.86Q58.37 62.95 58.37 61.99L58.37 61.99Q58.37 61.48 58.40 60.95Q58.44 60.42 58.44 59.91L58.44 59.91Q58.44 58.33 58.28 56.77Q58.11 55.22 58.11 53.64L58.11 53.64Q58.11 52.98 58.22 52.31Q58.33 51.63 58.33 51.01L58.33 51.01Q58.33 50.09 58.07 49.21Q57.82 48.33 57.82 47.45L57.82 47.45Q57.82 47.27 57.86 47.20L57.86 47.20Q58.00 47.02 58.11 46.45Q58.22 45.88 58.31 45.22Q58.40 44.56 58.46 43.98Q58.51 43.39 58.51 43.10L58.51 43.10Q58.51 42.22 58.35 41.36Q58.18 40.50 58.18 39.62L58.18 39.62Q58.18 39.11 58.28 38.57Q58.37 38.04 58.37 37.53L58.37 37.53Q58.37 37.31 58.29 37.26Q58.22 37.20 58.11 37.16Q58.00 37.13 57.93 37.04Q57.86 36.94 57.86 36.61L57.86 36.61Q57.86 36.32 58.18 35.86Q58.51 35.41 58.51 35.00L58.51 35.00Q58.51 34.67 58.29 34.07Q58.07 33.47 57.73 32.84Q57.38 32.22 56.99 31.71Q56.61 31.20 56.28 31.01L56.28 31.01Q55.58 30.68 54.69 30.52Q53.79 30.35 52.98 30.08Q52.18 29.80 51.63 29.25Q51.08 28.70 51.08 27.61L51.08 27.61Q51.08 26.62 51.63 25.98Q52.18 25.34 53.00 24.93Q53.83 24.53 54.78 24.37Q55.73 24.20 56.50 24.20L56.50 24.20Q57.05 24.20 57.73 24.26Q58.40 24.31 59.08 24.46Q59.76 24.60 60.40 24.80Q61.04 25.01 61.52 25.26L61.52 25.26Q62.40 24.97 63.31 24.79Q64.23 24.60 65.18 24.60L65.18 24.60Q65.73 24.60 66.37 24.71Q67.01 24.82 67.54 25.15Q68.07 25.48 68.42 26.05Q68.77 26.62 68.77 27.53L68.77 27.53Q68.77 27.94 68.66 28.17Q68.55 28.41 68.29 28.41L68.29 28.41Q67.30 28.41 66.30 28.87Q65.29 29.33 64.45 30.10Q63.60 30.87 63.07 31.84Q62.54 32.81 62.54 33.80L62.54 33.80Q62.54 34.27 62.65 34.71L62.65 34.71Q62.98 35.85 63.20 36.94Q63.42 38.04 63.42 39.22L63.42 39.22Q63.42 40.20 63.28 41.17Q63.13 42.14 63.13 43.13L63.13 43.13Q63.13 44.42 63.73 45.20Q64.34 45.99 65.29 46.43Q66.24 46.87 67.36 47.02Q68.48 47.16 69.54 47.16L69.54 47.16Q70.60 47.16 71.66 47.07Q72.72 46.98 73.82 46.98L73.82 46.98Q74.92 46.98 75.98 47.25Q77.04 47.53 78.14 47.53L78.14 47.53Q78.55 47.53 78.95 47.47Q79.35 47.42 79.64 47.24L79.64 47.24Q79.75 47.16 79.99 46.98Q80.23 46.80 80.51 46.63Q80.78 46.47 81.02 46.32Q81.26 46.17 81.37 46.17L81.37 46.17Q81.99 46.06 82.32 45.44Q82.65 44.82 82.81 44.03Q82.98 43.24 83.01 42.42Q83.05 41.60 83.05 41.08L83.05 41.08Q83.05 40.50 82.87 39.95Q82.68 39.40 82.45 38.87Q82.21 38.34 82.03 37.79Q81.84 37.24 81.84 36.61L81.84 36.61Q81.84 35.88 81.97 35.13Q82.10 34.38 82.10 33.65L82.10 33.65Q82.10 32.11 81.53 31.34Q80.96 30.57 80.12 30.21Q79.28 29.84 78.27 29.73Q77.26 29.62 76.42 29.38Q75.58 29.14 75.01 28.63Q74.44 28.12 74.44 26.95L74.44 26.95Q74.44 26.18 74.77 25.74Q75.10 25.30 75.63 25.06Q76.17 24.82 76.79 24.75Q77.41 24.68 78.00 24.68L78.00 24.68Q79.17 24.68 80.29 24.82Q81.40 24.97 82.57 24.97L82.57 24.97Q83.67 24.97 84.99 24.75Q86.31 24.53 87.66 24.53L87.66 24.53Q88.40 24.53 89.39 24.62Q90.37 24.71 91.29 25.01Q92.21 25.30 92.83 25.89Q93.45 26.47 93.45 27.50L93.45 27.50Q93.45 28.19 93.08 28.61Q92.72 29.03 92.17 29.35Q91.62 29.66 90.92 29.88Q90.23 30.10 89.57 30.33Q88.91 30.57 88.36 30.88Q87.81 31.20 87.55 31.71L87.55 31.71Q87.30 32.15 87.24 32.70Q87.19 33.25 87.19 33.76L87.19 33.76Q87.19 34.71 87.28 35.63Q87.37 36.54 87.37 37.49L87.37 37.49Q87.37 40.79 87.15 44.03Q86.93 47.27 86.93 50.53L86.93 50.53Q86.93 51.67 86.95 52.78Q86.97 53.90 87.08 55.04L87.08 55.04Q87.15 56.10 87.48 57.10Q87.81 58.11 87.81 59.17L87.81 59.17Q87.81 59.69 87.70 59.98Q87.59 60.27 87.46 60.49Q87.34 60.71 87.23 60.89Q87.12 61.08 87.12 61.30L87.12 61.30Q87.12 61.92 87.41 62.51Q87.70 63.09 87.70 63.71L87.70 63.71Q87.70 64.52 87.54 65.33Q87.37 66.13 87.37 66.94L87.37 66.94Q87.37 67.01 87.50 67.50Q87.63 68.00 87.79 68.59Q87.96 69.17 88.14 69.68Q88.32 70.20 88.43 70.31L88.43 70.31Q88.87 70.75 89.50 70.97Q90.12 71.19 90.81 71.35Q91.51 71.51 92.19 71.70Q92.86 71.88 93.38 72.25L93.38 72.25Q93.74 72.50 94.20 72.92Q94.66 73.35 94.66 73.86Z"></path></svg></svg></g></svg>